{"title":"Big.Trouble.In.Little.China.1986.720p.BluRay.DTS.x264-ESiR.mkv","uid":8805821,"size":4695772730,"categoryP":"video","categoryS":"hd___movies","magnet":"?xt=urn:btih:815a057760d11b05e7ef6cf573d44f460cd0f775&amp;dn=Big.Trouble.In.Little.China.1986.720p.BluRay.DTS.x264-ESiR.mkv&amp;tr=udp%3A%2F%2Ftracker.openbittorrent.com%3A80&amp;tr=udp%3A%2F%2Fopen.demonii.com%3A1337&amp;tr=udp%3A%2F%2Ftracker.coppersurfer.tk%3A6969&amp;tr=udp%3A%2F%2Fexodus.desync.com%3A6969","seeders":2,"leechers":1,"uploader":"rpessoa","files":1,"time":1376327157,"description":"An All-American trucker gets dragged into a centuries-old mystical battle in Chinatown.\n &lt;a href=&quot;\nhttp://www.imdb.com/title/tt0090728/&quot; rel=&quot;nofollow&quot; target=&quot;_NEW&quot;&gt;\nhttp://www.imdb.com/title/tt0090728/&lt;/a&gt;\n\nGeneral\nUnique ID                                : 192718537940976548260325686757570661565 (0x90FC3D84B014E2D188C6786DE51C4CBD)\nComplete name                            : Big.Trouble.In.Little.China.1986.720p.BluRay.DTS.x264-ESiR.mkv\nFormat                                   : Matroska\nFormat version                           : Version 2\nFile size                                : 4.37 GiB\nDuration                                 : 1h 39mn\nOverall bit rate                         : 6 274 Kbps\nMovie name                               : Big Trouble In Little China (1986)\nEncoded date                             : UTC 2009-06-20 10:34:35\nWriting application                      : mkvmerge v2.8.0 ('The Tree') built on May  9 2009 18:02:06\nWriting library                          : libebml v0.7.7 + libmatroska v0.8.1\n\nVideo\nID                                       : 1\nFormat                                   : AVC\nFormat/Info                              : Advanced Video Codec\nFormat profile                           : &lt;a class=&quot;__cf_email__&quot; href=&quot;/cdn-cgi/l/email-protection&quot; data-cfemail=&quot;e5ad8c828da5a9d1cbd4&quot;&gt;[email&amp;#160;protected]&lt;/a&gt;&lt;script cf-hash='f9e31' type=&quot;text/javascript&quot;&gt;\n/* &lt;![CDATA[ */!function(){try{var t=&quot;currentScript&quot;in document?document.currentScript:function(){for(var t=document.getElementsByTagName(&quot;script&quot;),e=t.length;e--;)if(t[e].getAttribute(&quot;cf-hash&quot;))return t[e]}();if(t&amp;&amp;t.previousSibling){var e,r,n,i,c=t.previousSibling,a=c.getAttribute(&quot;data-cfemail&quot;);if(a){for(e=&quot;&quot;,r=parseInt(a.substr(0,2),16),n=2;a.length-n;n+=2)i=parseInt(a.substr(n,2),16)^r,e+=String.fromCharCode(i);e=document.createTextNode(e),c.parentNode.replaceChild(e,c)}}}catch(u){}}();/* ]]&gt; */&lt;/script&gt;\nFormat settings, CABAC                   : Yes\nFormat settings, ReFrames                : 12 frames\nCodec ID                                 : V_MPEG4/ISO/AVC\nDuration                                 : 1h 39mn\nBit rate                                 : 4 762 Kbps\nWidth                                    : 1 280 pixels\nHeight                                   : 544 pixels\nDisplay aspect ratio                     : 2.35:1\nFrame rate                               : 23.976 fps\nColor space                              : YUV\nChroma subsampling                       : 4:2:0\nBit depth                                : 8 bits\nScan type                                : Progressive\nBits/(Pixel*Frame)                       : 0.285\nStream size                              : 3.23 GiB (74%)\nTitle                                    : x264 @ 4762 kbps\nWriting library                          : x264 core 67 r1165 6841c5e\nEncoding settings                        : cabac=1 // deblock=1:-3:-3 / analyse=0x3:0x113 / me=umh / subme=9 / psy_rd=1.0:0.0 // me_range=24 / chroma_me=1 / trellis=2 / 8x8dct=1 / cqm=0 / deadzone=21,11 / chroma_qp_offset=-2 / threads=6 / nr=0 / decimate=1 / mbaff=0 / bframes=4 / b_pyramid=1 / b_adapt=2 / b_bias=0 / direct=1 / wpredb=1 / keyint=250 / keyint_min=25 / scenecut=40 / rc=2pass / bitrate=4762 / ratetol=1.0 / qcomp=0.60 / qpmin=10 / qpmax=51 / qpstep=4 / cplxblur=20.0 / qblur=0.5 / ip_ratio=1.40 / pb_ratio=1.30 / aq=1:0.70\nLanguage                                 : English\nDefault                                  : Yes\nForced                                   : No\n\nAudio\nID                                       : 2\nFormat                                   : DTS\nFormat/Info                              : Digital Theater Systems\nCodec ID                                 : A_DTS\nDuration                                 : 1h 39mn\nBit rate mode                            : Constant\nBit rate                                 : 1 510 Kbps\nChannel(s)                               : 6 channels\nChannel positions                        : Front: L C R, Side: L R, LFE\nSampling rate                            : 48.0 KHz\nBit depth                                : 24 bits\nCompression mode                         : Lossy\nStream size                              : 1.05 GiB (24%)\nTitle                                    : DTS 5.1 @ 1.5mbit (core)\nLanguage                                 : English\nDefault                                  : Yes\nForced                                   : No\n\nText #1\nID                                       : 3\nFormat                                   : ASS\nCodec ID                                 : S_TEXT/ASS\nCodec ID/Info                            : Advanced Sub Station Alpha\nCompression mode                         : Lossless\nLanguage                                 : English\nDefault                                  : Yes\nForced                                   : No\n\nText #2\nID                                       : 4\nFormat                                   : ASS\nCodec ID                                 : S_TEXT/ASS\nCodec ID/Info                            : Advanced Sub Station Alpha\nCompression mode                         : Lossless\nLanguage                                 : Portuguese\nDefault                                  : No\nForced                                   : No\n\nText #3\nID                                       : 5\nFormat                                   : ASS\nCodec ID                                 : S_TEXT/ASS\nCodec ID/Info                            : Advanced Sub Station Alpha\nCompression mode                         : Lossless\nLanguage                                 : French\nDefault                                  : No\nForced                                   : No\n\nText #4\nID                                       : 6\nFormat                                   : ASS\nCodec ID                                 : S_TEXT/ASS\nCodec ID/Info                            : Advanced Sub Station Alpha\nCompression mode                         : Lossless\nLanguage                                 : Hungarian\nDefault                                  : No\nForced                                   : No\n\nText #5\nID                                       : 7\nFormat                                   : ASS\nCodec ID                                 : S_TEXT/ASS\nCodec ID/Info                            : Advanced Sub Station Alpha\nCompression mode                         : Lossless\nLanguage                                 : Norwegian\nDefault                                  : No\nForced                                   : No\n\nText #6\nID                                       : 8\nFormat                                   : ASS\nCodec ID                                 : S_TEXT/ASS\nCodec ID/Info                            : Advanced Sub Station Alpha\nCompression mode                         : Lossless\nLanguage                                 : Polish\nDefault                                  : No\nForced                                   : No\n\nText #7\nID                                       : 9\nFormat                                   : ASS\nCodec ID                                 : S_TEXT/ASS\nCodec ID/Info                            : Advanced Sub Station Alpha\nCompression mode                         : Lossless\nLanguage                                 : Serbian\nDefault                                  : No\nForced                                   : No\n\nText #8\nID                                       : 10\nFormat                                   : ASS\nCodec ID                                 : S_TEXT/ASS\nCodec ID/Info                            : Advanced Sub Station Alpha\nCompression mode                         : Lossless\nLanguage                                 : Spanish\nDefault                                  : No\nForced                                   : No\n\nText #9\nID                                       : 11\nFormat                                   : ASS\nCodec ID                                 : S_TEXT/ASS\nCodec ID/Info                            : Advanced Sub Station Alpha\nCompression mode                         : Lossless\nLanguage                                 : Swedish\nDefault                                  : No\nForced                                   : No","torrent":{"xt":"urn:btih:815a057760d11b05e7ef6cf573d44f460cd0f775","amp;dn":"Big.Trouble.In.Little.China.1986.720p.BluRay.DTS.x264-ESiR.mkv","amp;tr":["udp%3A%2F%2Ftracker.openbittorrent.com%3A80","udp%3A%2F%2Fopen.demonii.com%3A1337","udp%3A%2F%2Ftracker.coppersurfer.tk%3A6969","udp%3A%2F%2Fexodus.desync.com%3A6969"],"infoHash":"815a057760d11b05e7ef6cf573d44f460cd0f775","infoHashBuffer":{"type":"Buffer","data":[129,90,5,119,96,209,27,5,231,239,108,245,115,212,79,70,12,208,247,117]},"announce":[],"urlList":[]}}